<?xml version="1.0" standalone="no"?>
<svg xmlns="http://www.w3.org/2000/svg" width="2000" height="2000" viewBox="0 0 2000 2000"><defs><clipPath id="clip-path-dot-color"><path d="M 101 597v 62h 31a 31 31, 0, 0, 0, 0 -62" transform="rotate(180,132,628)"/><path d="M 101 721v 62h 31a 31 31, 0, 0, 0, 0 -62" transform="rotate(180,132,752)"/><path d="M 101 845v 62h 31a 31 31, 0, 0, 0, 0 -62" transform="rotate(180,132,876)"/><circle cx="132" cy="1000" r="31" transform="rotate(0,132,1000)"/><path d="M 101 1279v 62h 31a 31 31, 0, 0, 0, 0 -62" transform="rotate(180,132,1310)"/><rect x="163" y="597" width="62" height="62" transform="rotate(0,194,628)"/><rect x="163" y="659" width="62" height="62" transform="rotate(0,194,690)"/><rect x="163" y="721" width="62" height="62" transform="rotate(0,194,752)"/><rect x="163" y="783" width="62" height="62" transform="rotate(0,194,814)"/><rect x="163" y="845" width="62" height="62" transform="rotate(0,194,876)"/><path d="M 163 907v 62h 62v -31a 31 31, 0, 0, 0, -31 -31" transform="rotate(180,194,938)"/><path d="M 163 1031v 62h 62v -31a 31 31, 0, 0, 0, -31 -31" transform="rotate(-90,194,1062)"/><path d="M 163 1093v 62h 62v -31a 31 31, 0, 0, 0, -31 -31" transform="rotate(180,194,1124)"/><path d="M 163 1217v 62h 31a 31 31, 0, 0, 0, 0 -62" transform="rotate(-90,194,1248)"/><path d="M 163 1279v 62h 62v -31a 31 31, 0, 0, 0, -31 -31" transform="rotate(90,194,1310)"/><rect x="225" y="597" width="62" height="62" transform="rotate(0,256,628)"/><path d="M 225 721v 62h 62v -31a 31 31, 0, 0, 0, -31 -31" transform="rotate(0,256,752)"/><rect x="225" y="783" width="62" height="62" transform="rotate(0,256,814)"/><path d="M 225 907v 62h 31a 31 31, 0, 0, 0, 0 -62" transform="rotate(0,256,938)"/><path d="M 225 1031v 62h 62v -31a 31 31, 0, 0, 0, -31 -31" transform="rotate(0,256,1062)"/><rect x="225" y="1093" width="62" height="62" transform="rotate(0,256,1124)"/><path d="M 225 1341v 62h 31a 31 31, 0, 0, 0, 0 -62" transform="rotate(180,256,1372)"/><rect x="287" y="597" width="62" height="62" transform="rotate(0,318,628)"/><rect x="287" y="783" width="62" height="62" transform="rotate(0,318,814)"/><path d="M 287 845v 62h 62v -31a 31 31, 0, 0, 0, -31 -31" transform="rotate(180,318,876)"/><path d="M 287 1093v 62h 31a 31 31, 0, 0, 0, 0 -62" transform="rotate(0,318,1124)"/><path d="M 287 1279v 62h 62v -31a 31 31, 0, 0, 0, -31 -31" transform="rotate(-90,318,1310)"/><path d="M 287 1341v 62h 62v -31a 31 31, 0, 0, 0, -31 -31" transform="rotate(90,318,1372)"/><path d="M 349 597v 62h 31a 31 31, 0, 0, 0, 0 -62" transform="rotate(0,380,628)"/><path d="M 349 721v 62h 31a 31 31, 0, 0, 0, 0 -62" transform="rotate(-90,380,752)"/><rect x="349" y="783" width="62" height="62" transform="rotate(0,380,814)"/><rect x="349" y="845" width="62" height="62" transform="rotate(0,380,876)"/><path d="M 349 1217v 62h 31a 31 31, 0, 0, 0, 0 -62" transform="rotate(-90,380,1248)"/><rect x="349" y="1279" width="62" height="62" transform="rotate(0,380,1310)"/><rect x="411" y="845" width="62" height="62" transform="rotate(0,442,876)"/><path d="M 411 907v 62h 31a 31 31, 0, 0, 0, 0 -62" transform="rotate(90,442,938)"/><path d="M 411 1093v 62h 31a 31 31, 0, 0, 0, 0 -62" transform="rotate(180,442,1124)"/><path d="M 411 1279v 62h 62v -31a 31 31, 0, 0, 0, -31 -31" transform="rotate(0,442,1310)"/><path d="M 411 1341v 62h 62v -31a 31 31, 0, 0, 0, -31 -31" transform="rotate(180,442,1372)"/><path d="M 473 597v 62h 31a 31 31, 0, 0, 0, 0 -62" transform="rotate(180,504,628)"/><circle cx="504" cy="752" r="31" transform="rotate(0,504,752)"/><rect x="473" y="845" width="62" height="62" transform="rotate(0,504,876)"/><circle cx="504" cy="1000" r="31" transform="rotate(0,504,1000)"/><path d="M 473 1093v 62h 31a 31 31, 0, 0, 0, 0 -62" transform="rotate(0,504,1124)"/><path d="M 473 1217v 62h 31a 31 31, 0, 0, 0, 0 -62" transform="rotate(180,504,1248)"/><rect x="473" y="1341" width="62" height="62" transform="rotate(0,504,1372)"/><path d="M 535 597v 62h 31a 31 31, 0, 0, 0, 0 -62" transform="rotate(0,566,628)"/><rect x="535" y="845" width="62" height="62" transform="rotate(0,566,876)"/><circle cx="566" cy="1062" r="31" transform="rotate(0,566,1062)"/><path d="M 535 1155v 62h 62v -31a 31 31, 0, 0, 0, -31 -31" transform="rotate(-90,566,1186)"/><rect x="535" y="1217" width="62" height="62" transform="rotate(0,566,1248)"/><path d="M 535 1341v 62h 31a 31 31, 0, 0, 0, 0 -62" transform="rotate(0,566,1372)"/><path d="M 597 163v 62h 31a 31 31, 0, 0, 0, 0 -62" transform="rotate(-90,628,194)"/><path d="M 597 225v 62h 62v -31a 31 31, 0, 0, 0, -31 -31" transform="rotate(180,628,256)"/><path d="M 597 349v 62h 31a 31 31, 0, 0, 0, 0 -62" transform="rotate(180,628,380)"/><path d="M 597 473v 62h 31a 31 31, 0, 0, 0, 0 -62" transform="rotate(-90,628,504)"/><path d="M 597 535v 62h 62v -31a 31 31, 0, 0, 0, -31 -31" transform="rotate(180,628,566)"/><path d="M 597 721v 62h 31a 31 31, 0, 0, 0, 0 -62" transform="rotate(180,628,752)"/><path d="M 597 845v 62h 62v -31a 31 31, 0, 0, 0, -31 -31" transform="rotate(0,628,876)"/><rect x="597" y="907" width="62" height="62" transform="rotate(0,628,938)"/><path d="M 597 969v 62h 31a 31 31, 0, 0, 0, 0 -62" transform="rotate(90,628,1000)"/><path d="M 597 1155v 62h 62v -31a 31 31, 0, 0, 0, -31 -31" transform="rotate(0,628,1186)"/><rect x="597" y="1217" width="62" height="62" transform="rotate(0,628,1248)"/><circle cx="628" cy="1496" r="31" transform="rotate(0,628,1496)"/><path d="M 597 1589v 62h 31a 31 31, 0, 0, 0, 0 -62" transform="rotate(-90,628,1620)"/><rect x="597" y="1651" width="62" height="62" transform="rotate(0,628,1682)"/><rect x="597" y="1713" width="62" height="62" transform="rotate(0,628,1744)"/><rect x="597" y="1775" width="62" height="62" transform="rotate(0,628,1806)"/><path d="M 597 1837v 62h 62v -31a 31 31, 0, 0, 0, -31 -31" transform="rotate(180,628,1868)"/><path d="M 659 101v 62h 31a 31 31, 0, 0, 0, 0 -62" transform="rotate(180,690,132)"/><rect x="659" y="225" width="62" height="62" transform="rotate(0,690,256)"/><path d="M 659 349v 62h 31a 31 31, 0, 0, 0, 0 -62" transform="rotate(0,690,380)"/><path d="M 659 535v 62h 62v -31a 31 31, 0, 0, 0, -31 -31" transform="rotate(0,690,566)"/><path d="M 659 597v 62h 31a 31 31, 0, 0, 0, 0 -62" transform="rotate(90,690,628)"/><path d="M 659 721v 62h 31a 31 31, 0, 0, 0, 0 -62" transform="rotate(0,690,752)"/><path d="M 659 907v 62h 31a 31 31, 0, 0, 0, 0 -62" transform="rotate(0,690,938)"/><path d="M 659 1217v 62h 31a 31 31, 0, 0, 0, 0 -62" transform="rotate(0,690,1248)"/><path d="M 659 1341v 62h 31a 31 31, 0, 0, 0, 0 -62" transform="rotate(-90,690,1372)"/><path d="M 659 1403v 62h 31a 31 31, 0, 0, 0, 0 -62" transform="rotate(90,690,1434)"/><rect x="659" y="1651" width="62" height="62" transform="rotate(0,690,1682)"/><rect x="659" y="1837" width="62" height="62" transform="rotate(0,690,1868)"/><path d="M 721 101v 62h 62v -31a 31 31, 0, 0, 0, -31 -31" transform="rotate(0,752,132)"/><rect x="721" y="163" width="62" height="62" transform="rotate(0,752,194)"/><rect x="721" y="225" width="62" height="62" transform="rotate(0,752,256)"/><path d="M 721 287v 62h 62v -31a 31 31, 0, 0, 0, -31 -31" transform="rotate(180,752,318)"/><circle cx="752" cy="504" r="31" transform="rotate(0,752,504)"/><path d="M 721 659v 62h 31a 31 31, 0, 0, 0, 0 -62" transform="rotate(180,752,690)"/><path d="M 721 1589v 62h 31a 31 31, 0, 0, 0, 0 -62" transform="rotate(-90,752,1620)"/><path d="M 721 1651v 62h 62v -31a 31 31, 0, 0, 0, -31 -31" transform="rotate(90,752,1682)"/><path d="M 721 1775v 62h 62v -31a 31 31, 0, 0, 0, -31 -31" transform="rotate(-90,752,1806)"/><path d="M 721 1837v 62h 62v -31a 31 31, 0, 0, 0, -31 -31" transform="rotate(90,752,1868)"/><rect x="783" y="163" width="62" height="62" transform="rotate(0,814,194)"/><rect x="783" y="287" width="62" height="62" transform="rotate(0,814,318)"/><rect x="783" y="349" width="62" height="62" transform="rotate(0,814,380)"/><path d="M 783 411v 62h 31a 31 31, 0, 0, 0, 0 -62" transform="rotate(90,814,442)"/><rect x="783" y="659" width="62" height="62" transform="rotate(0,814,690)"/><path d="M 783 1279v 62h 31a 31 31, 0, 0, 0, 0 -62" transform="rotate(-90,814,1310)"/><rect x="783" y="1341" width="62" height="62" transform="rotate(0,814,1372)"/><rect x="783" y="1403" width="62" height="62" transform="rotate(0,814,1434)"/><path d="M 783 1465v 62h 62v -31a 31 31, 0, 0, 0, -31 -31" transform="rotate(180,814,1496)"/><path d="M 783 1775v 62h 31a 31 31, 0, 0, 0, 0 -62" transform="rotate(0,814,1806)"/><path d="M 845 101v 62h 62v -31a 31 31, 0, 0, 0, -31 -31" transform="rotate(-90,876,132)"/><path d="M 845 163v 62h 62v -31a 31 31, 0, 0, 0, -31 -31" transform="rotate(90,876,194)"/><path d="M 845 287v 62h 31a 31 31, 0, 0, 0, 0 -62" transform="rotate(0,876,318)"/><path d="M 845 473v 62h 31a 31 31, 0, 0, 0, 0 -62" transform="rotate(-90,876,504)"/><path d="M 845 535v 62h 31a 31 31, 0, 0, 0, 0 -62" transform="rotate(90,876,566)"/><rect x="845" y="659" width="62" height="62" transform="rotate(0,876,690)"/><rect x="845" y="1465" width="62" height="62" transform="rotate(0,876,1496)"/><path d="M 845 1527v 62h 62v -31a 31 31, 0, 0, 0, -31 -31" transform="rotate(180,876,1558)"/><rect x="907" y="101" width="62" height="62" transform="rotate(0,938,132)"/><path d="M 907 597v 62h 31a 31 31, 0, 0, 0, 0 -62" transform="rotate(-90,938,628)"/><rect x="907" y="659" width="62" height="62" transform="rotate(0,938,690)"/><path d="M 907 1341v 62h 31a 31 31, 0, 0, 0, 0 -62" transform="rotate(-90,938,1372)"/><rect x="907" y="1403" width="62" height="62" transform="rotate(0,938,1434)"/><rect x="907" y="1465" width="62" height="62" transform="rotate(0,938,1496)"/><rect x="907" y="1527" width="62" height="62" transform="rotate(0,938,1558)"/><path d="M 907 1775v 62h 62v -31a 31 31, 0, 0, 0, -31 -31" transform="rotate(-90,938,1806)"/><path d="M 907 1837v 62h 62v -31a 31 31, 0, 0, 0, -31 -31" transform="rotate(180,938,1868)"/><path d="M 969 101v 62h 31a 31 31, 0, 0, 0, 0 -62" transform="rotate(0,1000,132)"/><circle cx="1000" cy="256" r="31" transform="rotate(0,1000,256)"/><circle cx="1000" cy="380" r="31" transform="rotate(0,1000,380)"/><circle cx="1000" cy="504" r="31" transform="rotate(0,1000,504)"/><path d="M 969 659v 62h 31a 31 31, 0, 0, 0, 0 -62" transform="rotate(0,1000,690)"/><rect x="969" y="1403" width="62" height="62" transform="rotate(0,1000,1434)"/><rect x="969" y="1527" width="62" height="62" transform="rotate(0,1000,1558)"/><path d="M 969 1713v 62h 31a 31 31, 0, 0, 0, 0 -62" transform="rotate(-90,1000,1744)"/><rect x="969" y="1775" width="62" height="62" transform="rotate(0,1000,1806)"/><rect x="969" y="1837" width="62" height="62" transform="rotate(0,1000,1868)"/><circle cx="1062" cy="194" r="31" transform="rotate(0,1062,194)"/><path d="M 1031 411v 62h 31a 31 31, 0, 0, 0, 0 -62" transform="rotate(180,1062,442)"/><circle cx="1062" cy="566" r="31" transform="rotate(0,1062,566)"/><path d="M 1031 1341v 62h 62v -31a 31 31, 0, 0, 0, -31 -31" transform="rotate(-90,1062,1372)"/><rect x="1031" y="1403" width="62" height="62" transform="rotate(0,1062,1434)"/><rect x="1031" y="1527" width="62" height="62" transform="rotate(0,1062,1558)"/><rect x="1031" y="1775" width="62" height="62" transform="rotate(0,1062,1806)"/><path d="M 1031 1837v 62h 62v -31a 31 31, 0, 0, 0, -31 -31" transform="rotate(90,1062,1868)"/><circle cx="1124" cy="132" r="31" transform="rotate(0,1124,132)"/><circle cx="1124" cy="256" r="31" transform="rotate(0,1124,256)"/><path d="M 1093 411v 62h 62v -31a 31 31, 0, 0, 0, -31 -31" transform="rotate(0,1124,442)"/><path d="M 1093 473v 62h 31a 31 31, 0, 0, 0, 0 -62" transform="rotate(90,1124,504)"/><circle cx="1124" cy="690" r="31" transform="rotate(0,1124,690)"/><rect x="1093" y="1341" width="62" height="62" transform="rotate(0,1124,1372)"/><rect x="1093" y="1403" width="62" height="62" transform="rotate(0,1124,1434)"/><rect x="1093" y="1465" width="62" height="62" transform="rotate(0,1124,1496)"/><path d="M 1093 1527v 62h 62v -31a 31 31, 0, 0, 0, -31 -31" transform="rotate(90,1124,1558)"/><circle cx="1124" cy="1682" r="31" transform="rotate(0,1124,1682)"/><rect x="1093" y="1775" width="62" height="62" transform="rotate(0,1124,1806)"/><path d="M 1155 535v 62h 31a 31 31, 0, 0, 0, 0 -62" transform="rotate(-90,1186,566)"/><path d="M 1155 597v 62h 31a 31 31, 0, 0, 0, 0 -62" transform="rotate(90,1186,628)"/><path d="M 1155 1279v 62h 31a 31 31, 0, 0, 0, 0 -62" transform="rotate(-90,1186,1310)"/><rect x="1155" y="1341" width="62" height="62" transform="rotate(0,1186,1372)"/><rect x="1155" y="1403" width="62" height="62" transform="rotate(0,1186,1434)"/><path d="M 1155 1713v 62h 31a 31 31, 0, 0, 0, 0 -62" transform="rotate(-90,1186,1744)"/><rect x="1155" y="1775" width="62" height="62" transform="rotate(0,1186,1806)"/><path d="M 1155 1837v 62h 62v -31a 31 31, 0, 0, 0, -31 -31" transform="rotate(180,1186,1868)"/><circle cx="1248" cy="132" r="31" transform="rotate(0,1248,132)"/><path d="M 1217 349v 62h 31a 31 31, 0, 0, 0, 0 -62" transform="rotate(-90,1248,380)"/><rect x="1217" y="411" width="62" height="62" transform="rotate(0,1248,442)"/><path d="M 1217 473v 62h 31a 31 31, 0, 0, 0, 0 -62" transform="rotate(90,1248,504)"/><rect x="1217" y="1341" width="62" height="62" transform="rotate(0,1248,1372)"/><path d="M 1217 1403v 62h 62v -31a 31 31, 0, 0, 0, -31 -31" transform="rotate(90,1248,1434)"/><circle cx="1248" cy="1558" r="31" transform="rotate(0,1248,1558)"/><circle cx="1248" cy="1682" r="31" transform="rotate(0,1248,1682)"/><path d="M 1217 1775v 62h 62v -31a 31 31, 0, 0, 0, -31 -31" transform="rotate(0,1248,1806)"/><rect x="1217" y="1837" width="62" height="62" transform="rotate(0,1248,1868)"/><path d="M 1279 163v 62h 31a 31 31, 0, 0, 0, 0 -62" transform="rotate(-90,1310,194)"/><rect x="1279" y="225" width="62" height="62" transform="rotate(0,1310,256)"/><path d="M 1279 287v 62h 62v -31a 31 31, 0, 0, 0, -31 -31" transform="rotate(180,1310,318)"/><path d="M 1279 659v 62h 31a 31 31, 0, 0, 0, 0 -62" transform="rotate(180,1310,690)"/><path d="M 1279 783v 62h 62v -31a 31 31, 0, 0, 0, -31 -31" transform="rotate(-90,1310,814)"/><rect x="1279" y="845" width="62" height="62" transform="rotate(0,1310,876)"/><path d="M 1279 907v 62h 31a 31 31, 0, 0, 0, 0 -62" transform="rotate(90,1310,938)"/><path d="M 1279 1093v 62h 31a 31 31, 0, 0, 0, 0 -62" transform="rotate(-90,1310,1124)"/><rect x="1279" y="1155" width="62" height="62" transform="rotate(0,1310,1186)"/><path d="M 1279 1217v 62h 31a 31 31, 0, 0, 0, 0 -62" transform="rotate(90,1310,1248)"/><rect x="1279" y="1341" width="62" height="62" transform="rotate(0,1310,1372)"/><path d="M 1279 1465v 62h 31a 31 31, 0, 0, 0, 0 -62" transform="rotate(180,1310,1496)"/><path d="M 1279 1589v 62h 31a 31 31, 0, 0, 0, 0 -62" transform="rotate(180,1310,1620)"/><path d="M 1279 1837v 62h 31a 31 31, 0, 0, 0, 0 -62" transform="rotate(0,1310,1868)"/><circle cx="1372" cy="132" r="31" transform="rotate(0,1372,132)"/><path d="M 1341 225v 62h 62v -31a 31 31, 0, 0, 0, -31 -31" transform="rotate(0,1372,256)"/><path d="M 1341 287v 62h 62v -31a 31 31, 0, 0, 0, -31 -31" transform="rotate(90,1372,318)"/><path d="M 1341 473v 62h 31a 31 31, 0, 0, 0, 0 -62" transform="rotate(-90,1372,504)"/><rect x="1341" y="535" width="62" height="62" transform="rotate(0,1372,566)"/><rect x="1341" y="597" width="62" height="62" transform="rotate(0,1372,628)"/><path d="M 1341 659v 62h 62v -31a 31 31, 0, 0, 0, -31 -31" transform="rotate(90,1372,690)"/><rect x="1341" y="783" width="62" height="62" transform="rotate(0,1372,814)"/><path d="M 1341 845v 62h 62v -31a 31 31, 0, 0, 0, -31 -31" transform="rotate(90,1372,876)"/><circle cx="1372" cy="1062" r="31" transform="rotate(0,1372,1062)"/><rect x="1341" y="1155" width="62" height="62" transform="rotate(0,1372,1186)"/><rect x="1341" y="1341" width="62" height="62" transform="rotate(0,1372,1372)"/><rect x="1341" y="1403" width="62" height="62" transform="rotate(0,1372,1434)"/><rect x="1341" y="1465" width="62" height="62" transform="rotate(0,1372,1496)"/><rect x="1341" y="1527" width="62" height="62" transform="rotate(0,1372,1558)"/><rect x="1341" y="1589" width="62" height="62" transform="rotate(0,1372,1620)"/><path d="M 1341 1775v 62h 31a 31 31, 0, 0, 0, 0 -62" transform="rotate(180,1372,1806)"/><rect x="1403" y="597" width="62" height="62" transform="rotate(0,1434,628)"/><rect x="1403" y="783" width="62" height="62" transform="rotate(0,1434,814)"/><path d="M 1403 969v 62h 31a 31 31, 0, 0, 0, 0 -62" transform="rotate(180,1434,1000)"/><path d="M 1403 1093v 62h 62v -31a 31 31, 0, 0, 0, -31 -31" transform="rotate(-90,1434,1124)"/><rect x="1403" y="1155" width="62" height="62" transform="rotate(0,1434,1186)"/><path d="M 1403 1217v 62h 62v -31a 31 31, 0, 0, 0, -31 -31" transform="rotate(180,1434,1248)"/><rect x="1403" y="1341" width="62" height="62" transform="rotate(0,1434,1372)"/><rect x="1403" y="1589" width="62" height="62" transform="rotate(0,1434,1620)"/><path d="M 1403 1775v 62h 62v -31a 31 31, 0, 0, 0, -31 -31" transform="rotate(0,1434,1806)"/><path d="M 1403 1837v 62h 62v -31a 31 31, 0, 0, 0, -31 -31" transform="rotate(180,1434,1868)"/><path d="M 1465 597v 62h 31a 31 31, 0, 0, 0, 0 -62" transform="rotate(0,1496,628)"/><path d="M 1465 783v 62h 62v -31a 31 31, 0, 0, 0, -31 -31" transform="rotate(0,1496,814)"/><rect x="1465" y="845" width="62" height="62" transform="rotate(0,1496,876)"/><rect x="1465" y="907" width="62" height="62" transform="rotate(0,1496,938)"/><rect x="1465" y="969" width="62" height="62" transform="rotate(0,1496,1000)"/><rect x="1465" y="1093" width="62" height="62" transform="rotate(0,1496,1124)"/><path d="M 1465 1217v 62h 62v -31a 31 31, 0, 0, 0, -31 -31" transform="rotate(0,1496,1248)"/><rect x="1465" y="1279" width="62" height="62" transform="rotate(0,1496,1310)"/><rect x="1465" y="1341" width="62" height="62" transform="rotate(0,1496,1372)"/><circle cx="1496" cy="1496" r="31" transform="rotate(0,1496,1496)"/><rect x="1465" y="1589" width="62" height="62" transform="rotate(0,1496,1620)"/><circle cx="1496" cy="1744" r="31" transform="rotate(0,1496,1744)"/><path d="M 1465 1837v 62h 31a 31 31, 0, 0, 0, 0 -62" transform="rotate(0,1496,1868)"/><path d="M 1527 659v 62h 62v -31a 31 31, 0, 0, 0, -31 -31" transform="rotate(-90,1558,690)"/><path d="M 1527 721v 62h 31a 31 31, 0, 0, 0, 0 -62" transform="rotate(90,1558,752)"/><path d="M 1527 969v 62h 31a 31 31, 0, 0, 0, 0 -62" transform="rotate(0,1558,1000)"/><rect x="1527" y="1093" width="62" height="62" transform="rotate(0,1558,1124)"/><path d="M 1527 1155v 62h 31a 31 31, 0, 0, 0, 0 -62" transform="rotate(90,1558,1186)"/><rect x="1527" y="1341" width="62" height="62" transform="rotate(0,1558,1372)"/><rect x="1527" y="1589" width="62" height="62" transform="rotate(0,1558,1620)"/><path d="M 1589 597v 62h 31a 31 31, 0, 0, 0, 0 -62" transform="rotate(-90,1620,628)"/><path d="M 1589 659v 62h 62v -31a 31 31, 0, 0, 0, -31 -31" transform="rotate(90,1620,690)"/><circle cx="1620" cy="876" r="31" transform="rotate(0,1620,876)"/><path d="M 1589 1093v 62h 31a 31 31, 0, 0, 0, 0 -62" transform="rotate(0,1620,1124)"/><rect x="1589" y="1341" width="62" height="62" transform="rotate(0,1620,1372)"/><rect x="1589" y="1403" width="62" height="62" transform="rotate(0,1620,1434)"/><rect x="1589" y="1465" width="62" height="62" transform="rotate(0,1620,1496)"/><rect x="1589" y="1527" width="62" height="62" transform="rotate(0,1620,1558)"/><rect x="1589" y="1589" width="62" height="62" transform="rotate(0,1620,1620)"/><path d="M 1589 1651v 62h 31a 31 31, 0, 0, 0, 0 -62" transform="rotate(90,1620,1682)"/><path d="M 1651 721v 62h 62v -31a 31 31, 0, 0, 0, -31 -31" transform="rotate(-90,1682,752)"/><path d="M 1651 783v 62h 62v -31a 31 31, 0, 0, 0, -31 -31" transform="rotate(180,1682,814)"/><path d="M 1651 969v 62h 62v -31a 31 31, 0, 0, 0, -31 -31" transform="rotate(-90,1682,1000)"/><path d="M 1651 1031v 62h 31a 31 31, 0, 0, 0, 0 -62" transform="rotate(90,1682,1062)"/><path d="M 1651 1155v 62h 62v -31a 31 31, 0, 0, 0, -31 -31" transform="rotate(-90,1682,1186)"/><path d="M 1651 1217v 62h 62v -31a 31 31, 0, 0, 0, -31 -31" transform="rotate(180,1682,1248)"/><path d="M 1651 1341v 62h 62v -31a 31 31, 0, 0, 0, -31 -31" transform="rotate(0,1682,1372)"/><path d="M 1651 1403v 62h 62v -31a 31 31, 0, 0, 0, -31 -31" transform="rotate(90,1682,1434)"/><rect x="1651" y="1589" width="62" height="62" transform="rotate(0,1682,1620)"/><path d="M 1651 1713v 62h 31a 31 31, 0, 0, 0, 0 -62" transform="rotate(180,1682,1744)"/><path d="M 1713 597v 62h 62v -31a 31 31, 0, 0, 0, -31 -31" transform="rotate(-90,1744,628)"/><rect x="1713" y="659" width="62" height="62" transform="rotate(0,1744,690)"/><rect x="1713" y="721" width="62" height="62" transform="rotate(0,1744,752)"/><path d="M 1713 783v 62h 62v -31a 31 31, 0, 0, 0, -31 -31" transform="rotate(90,1744,814)"/><path d="M 1713 969v 62h 31a 31 31, 0, 0, 0, 0 -62" transform="rotate(0,1744,1000)"/><rect x="1713" y="1155" width="62" height="62" transform="rotate(0,1744,1186)"/><rect x="1713" y="1217" width="62" height="62" transform="rotate(0,1744,1248)"/><path d="M 1713 1279v 62h 62v -31a 31 31, 0, 0, 0, -31 -31" transform="rotate(180,1744,1310)"/><path d="M 1713 1527v 62h 62v -31a 31 31, 0, 0, 0, -31 -31" transform="rotate(-90,1744,1558)"/><rect x="1713" y="1589" width="62" height="62" transform="rotate(0,1744,1620)"/><rect x="1713" y="1651" width="62" height="62" transform="rotate(0,1744,1682)"/><path d="M 1713 1713v 62h 62v -31a 31 31, 0, 0, 0, -31 -31" transform="rotate(90,1744,1744)"/><circle cx="1744" cy="1868" r="31" transform="rotate(0,1744,1868)"/><path d="M 1775 597v 62h 62v -31a 31 31, 0, 0, 0, -31 -31" transform="rotate(0,1806,628)"/><rect x="1775" y="659" width="62" height="62" transform="rotate(0,1806,690)"/><path d="M 1775 721v 62h 62v -31a 31 31, 0, 0, 0, -31 -31" transform="rotate(90,1806,752)"/><circle cx="1806" cy="876" r="31" transform="rotate(0,1806,876)"/><path d="M 1775 1031v 62h 31a 31 31, 0, 0, 0, 0 -62" transform="rotate(-90,1806,1062)"/><rect x="1775" y="1093" width="62" height="62" transform="rotate(0,1806,1124)"/><rect x="1775" y="1155" width="62" height="62" transform="rotate(0,1806,1186)"/><rect x="1775" y="1279" width="62" height="62" transform="rotate(0,1806,1310)"/><path d="M 1775 1403v 62h 31a 31 31, 0, 0, 0, 0 -62" transform="rotate(180,1806,1434)"/><path d="M 1775 1527v 62h 31a 31 31, 0, 0, 0, 0 -62" transform="rotate(0,1806,1558)"/><path d="M 1775 1651v 62h 31a 31 31, 0, 0, 0, 0 -62" transform="rotate(0,1806,1682)"/><path d="M 1775 1775v 62h 31a 31 31, 0, 0, 0, 0 -62" transform="rotate(180,1806,1806)"/><path d="M 1837 659v 62h 31a 31 31, 0, 0, 0, 0 -62" transform="rotate(0,1868,690)"/><path d="M 1837 1093v 62h 62v -31a 31 31, 0, 0, 0, -31 -31" transform="rotate(0,1868,1124)"/><path d="M 1837 1155v 62h 62v -31a 31 31, 0, 0, 0, -31 -31" transform="rotate(90,1868,1186)"/><path d="M 1837 1279v 62h 62v -31a 31 31, 0, 0, 0, -31 -31" transform="rotate(0,1868,1310)"/><rect x="1837" y="1341" width="62" height="62" transform="rotate(0,1868,1372)"/><path d="M 1837 1403v 62h 62v -31a 31 31, 0, 0, 0, -31 -31" transform="rotate(90,1868,1434)"/><circle cx="1868" cy="1620" r="31" transform="rotate(0,1868,1620)"/><path d="M 1837 1775v 62h 62v -31a 31 31, 0, 0, 0, -31 -31" transform="rotate(0,1868,1806)"/><path d="M 1837 1837v 62h 31a 31 31, 0, 0, 0, 0 -62" transform="rotate(90,1868,1868)"/></clipPath><radialGradient id="dot-color" gradientUnits="userSpaceOnUse" fx="1000" fy="1000" cx="1000" cy="1000" r="899"><stop offset="0%" stop-color="#7606fe"/><stop offset="100%" stop-color="#33c2ff"/></radialGradient><clipPath id="clip-path-corners-square-color-0-0"><path clip-rule="evenodd" d="M 101 256v 124a 155 155, 0, 0, 0, 155 155h 124a 155 155, 0, 0, 0, 155 -155v -124a 155 155, 0, 0, 0, -155 -155h -124a 155 155, 0, 0, 0, -155 155M 256 163h 124a 93 93, 0, 0, 1, 93 93v 124a 93 93, 0, 0, 1, -93 93h -124a 93 93, 0, 0, 1, -93 -93v -124a 93 93, 0, 0, 1, 93 -93" transform="rotate(0,318,318)"/></clipPath><linearGradient id="corners-square-color-0-0" gradientUnits="userSpaceOnUse" x1="448" y1="535" x2="188" y2="101"><stop offset="0%" stop-color="#33c2ff"/><stop offset="100%" stop-color="#7606fe"/></linearGradient><clipPath id="clip-path-corners-dot-color-0-0"><path d="M 225 225v 62h 62v -31a 31 31, 0, 0, 0, -31 -31" transform="rotate(-90,256,256)"/><rect x="225" y="287" width="62" height="62" transform="rotate(0,256,318)"/><path d="M 225 349v 62h 62v -31a 31 31, 0, 0, 0, -31 -31" transform="rotate(180,256,380)"/><rect x="287" y="225" width="62" height="62" transform="rotate(0,318,256)"/><rect x="287" y="287" width="62" height="62" transform="rotate(0,318,318)"/><rect x="287" y="349" width="62" height="62" transform="rotate(0,318,380)"/><path d="M 349 225v 62h 62v -31a 31 31, 0, 0, 0, -31 -31" transform="rotate(0,380,256)"/><rect x="349" y="287" width="62" height="62" transform="rotate(0,380,318)"/><path d="M 349 349v 62h 62v -31a 31 31, 0, 0, 0, -31 -31" transform="rotate(90,380,380)"/></clipPath><radialGradient id="corners-dot-color-0-0" gradientUnits="userSpaceOnUse" fx="318" fy="318" cx="318" cy="318" r="93"><stop offset="0%" stop-color="#0055ff"/><stop offset="100%" stop-color="#33c2ff"/></radialGradient><clipPath id="clip-path-corners-square-color-1-0"><path clip-rule="evenodd" d="M 1465 256v 124a 155 155, 0, 0, 0, 155 155h 124a 155 155, 0, 0, 0, 155 -155v -124a 155 155, 0, 0, 0, -155 -155h -124a 155 155, 0, 0, 0, -155 155M 1620 163h 124a 93 93, 0, 0, 1, 93 93v 124a 93 93, 0, 0, 1, -93 93h -124a 93 93, 0, 0, 1, -93 -93v -124a 93 93, 0, 0, 1, 93 -93" transform="rotate(90,1682,318)"/></clipPath><linearGradient id="corners-square-color-1-0" gradientUnits="userSpaceOnUse" x1="1465" y1="448" x2="1899" y2="188"><stop offset="0%" stop-color="#33c2ff"/><stop offset="100%" stop-color="#7606fe"/></linearGradient><clipPath id="clip-path-corners-dot-color-1-0"><path d="M 1589 225v 62h 62v -31a 31 31, 0, 0, 0, -31 -31" transform="rotate(-90,1620,256)"/><rect x="1589" y="287" width="62" height="62" transform="rotate(0,1620,318)"/><path d="M 1589 349v 62h 62v -31a 31 31, 0, 0, 0, -31 -31" transform="rotate(180,1620,380)"/><rect x="1651" y="225" width="62" height="62" transform="rotate(0,1682,256)"/><rect x="1651" y="287" width="62" height="62" transform="rotate(0,1682,318)"/><rect x="1651" y="349" width="62" height="62" transform="rotate(0,1682,380)"/><path d="M 1713 225v 62h 62v -31a 31 31, 0, 0, 0, -31 -31" transform="rotate(0,1744,256)"/><rect x="1713" y="287" width="62" height="62" transform="rotate(0,1744,318)"/><path d="M 1713 349v 62h 62v -31a 31 31, 0, 0, 0, -31 -31" transform="rotate(90,1744,380)"/></clipPath><radialGradient id="corners-dot-color-1-0" gradientUnits="userSpaceOnUse" fx="1682" fy="318" cx="1682" cy="318" r="93"><stop offset="0%" stop-color="#0055ff"/><stop offset="100%" stop-color="#33c2ff"/></radialGradient><clipPath id="clip-path-corners-square-color-0-1"><path clip-rule="evenodd" d="M 101 1620v 124a 155 155, 0, 0, 0, 155 155h 124a 155 155, 0, 0, 0, 155 -155v -124a 155 155, 0, 0, 0, -155 -155h -124a 155 155, 0, 0, 0, -155 155M 256 1527h 124a 93 93, 0, 0, 1, 93 93v 124a 93 93, 0, 0, 1, -93 93h -124a 93 93, 0, 0, 1, -93 -93v -124a 93 93, 0, 0, 1, 93 -93" transform="rotate(-90,318,1682)"/></clipPath><linearGradient id="corners-square-color-0-1" gradientUnits="userSpaceOnUse" x1="535" y1="1552" x2="101" y2="1812"><stop offset="0%" stop-color="#33c2ff"/><stop offset="100%" stop-color="#7606fe"/></linearGradient><clipPath id="clip-path-corners-dot-color-0-1"><path d="M 225 1589v 62h 62v -31a 31 31, 0, 0, 0, -31 -31" transform="rotate(-90,256,1620)"/><rect x="225" y="1651" width="62" height="62" transform="rotate(0,256,1682)"/><path d="M 225 1713v 62h 62v -31a 31 31, 0, 0, 0, -31 -31" transform="rotate(180,256,1744)"/><rect x="287" y="1589" width="62" height="62" transform="rotate(0,318,1620)"/><rect x="287" y="1651" width="62" height="62" transform="rotate(0,318,1682)"/><rect x="287" y="1713" width="62" height="62" transform="rotate(0,318,1744)"/><path d="M 349 1589v 62h 62v -31a 31 31, 0, 0, 0, -31 -31" transform="rotate(0,380,1620)"/><rect x="349" y="1651" width="62" height="62" transform="rotate(0,380,1682)"/><path d="M 349 1713v 62h 62v -31a 31 31, 0, 0, 0, -31 -31" transform="rotate(90,380,1744)"/></clipPath><radialGradient id="corners-dot-color-0-1" gradientUnits="userSpaceOnUse" fx="318" fy="1682" cx="318" cy="1682" r="93"><stop offset="0%" stop-color="#0055ff"/><stop offset="100%" stop-color="#33c2ff"/></radialGradient></defs><rect x="101" y="101" height="1798" width="1798" clip-path="url('#clip-path-dot-color')" fill="url('#dot-color')"/><rect x="101" y="101" height="434" width="434" clip-path="url('#clip-path-corners-square-color-0-0')" fill="url('#corners-square-color-0-0')"/><rect x="225" y="225" height="186" width="186" clip-path="url('#clip-path-corners-dot-color-0-0')" fill="url('#corners-dot-color-0-0')"/><rect x="1465" y="101" height="434" width="434" clip-path="url('#clip-path-corners-square-color-1-0')" fill="url('#corners-square-color-1-0')"/><rect x="1589" y="225" height="186" width="186" clip-path="url('#clip-path-corners-dot-color-1-0')" fill="url('#corners-dot-color-1-0')"/><rect x="101" y="1465" height="434" width="434" clip-path="url('#clip-path-corners-square-color-0-1')" fill="url('#corners-square-color-0-1')"/><rect x="225" y="1589" height="186" width="186" clip-path="url('#clip-path-corners-dot-color-0-1')" fill="url('#corners-dot-color-0-1')"/><image href="https://img.qrfy.com/img/large/bc1b472b-69a7-4ef4-a110-09aa73e9ef28.webp" x="721" y="721" width="558px" height="558px"/></svg>